<svg width="203" height="215" viewBox="0 0 203 215" fill="none" xmlns="http://www.w3.org/2000/svg">
<path d="M63.7164 153L45.5164 119.2H42.7864V153H17.3064V61.35H57.4764C64.843 61.35 71.083 62.65 76.1964 65.25C81.3097 67.7633 85.1664 71.2733 87.7664 75.78C90.3664 80.2 91.6664 85.1833 91.6664 90.73C91.6664 96.97 89.933 102.473 86.4664 107.24C83.0864 111.92 78.103 115.257 71.5164 117.25L92.1864 153H63.7164ZM42.7864 101.78H55.3964C58.863 101.78 61.463 100.957 63.1964 99.31C64.9297 97.6633 65.7964 95.28 65.7964 92.16C65.7964 89.2133 64.8864 86.9167 63.0664 85.27C61.333 83.5367 58.7764 82.67 55.3964 82.67H42.7864V101.78Z" fill="black"/>
<path d="M185.504 61.35V153H160.024V116.21H128.954V153H103.474V61.35H128.954V95.8H160.024V61.35H185.504Z" fill="black"/>
</svg>
